PathFileType	4	(X/Y/Z)	Walk10.trc
DataRate	CameraRate	NumFrames	NumMarkers	Units	OrigDataRate	OrigDataStartFrame	OrigNumFrames
200.000000	200.000000	4	59	mm	200.000000	392	470
Frame#	Times		RCAR		LElbow		LFA1		LWRU		LTH3		LLFC		LTB1		LTB3		RTH2		LCAR		LTH2		LMT5		LMT1		LToe		LASI		LBHD		LUA1		C7		RFA1		RWRU		RPSI		T10		LTH4		LPSI		LACR1		LLMAL		RBHD		RUA1		LElbowM		LFHD		RElbow		LTB2		LWRR		RACR1		RFHD		RToe		RElbowM		RTB2		RLFC		RCAL		RMT5		RLMAL		LMFC		RTB1		RTH3		STRN		RTB4		RASI		RTB3		RMT1		RMFC		LTB4		RTH4		LTH1		LCAL		LMMAL		RMMAL		RTH1		RWRR
			X1	Y1	Z1	X2	Y2	Z2	X3	Y3	Z3	X4	Y4	Z4	X5	Y5	Z5	X6	Y6	Z6	X7	Y7	Z7	X8	Y8	Z8	X9	Y9	Z9	X10	Y10	Z10	X11	Y11	Z11	X12	Y12	Z12	X13	Y13	Z13	X14	Y14	Z14	X15	Y15	Z15	X16	Y16	Z16	X17	Y17	Z17	X18	Y18	Z18	X19	Y19	Z19	X20	Y20	Z20	X21	Y21	Z21	X22	Y22	Z22	X23	Y23	Z23	X24	Y24	Z24	X25	Y25	Z25	X26	Y26	Z26	X27	Y27	Z27	X28	Y28	Z28	X29	Y29	Z29	X30	Y30	Z30	X31	Y31	Z31	X32	Y32	Z32	X33	Y33	Z33	X34	Y34	Z34	X35	Y35	Z35	X36	Y36	Z36	X37	Y37	Z37	X38	Y38	Z38	X39	Y39	Z39	X40	Y40	Z40	X41	Y41	Z41	X42	Y42	Z42	X43	Y43	Z43	X44	Y44	Z44	X45	Y45	Z45	X46	Y46	Z46	X47	Y47	Z47	X48	Y48	Z48	X49	Y49	Z49	X50	Y50	Z50	X51	Y51	Z51	X52	Y52	Z52	X53	Y53	Z53	X54	Y54	Z54	X55	Y55	Z55	X56	Y56	Z56	X57	Y57	Z57	X58	Y58	Z58	X59	Y59	Z59

392	1.96	759.45	805.32	480.1	777.12	1130.9	-166.65	849.39	993.27	-162.92	926.26	885.24	-137.81	733.71	587.48	-22.955	696.3	490.27	-12.282	653.26	351.09	59.18	512.88	229.97	66.133	951.14	721.34	283.27	1008.4	879.18	-151.07	816.11	670.37	-10.732	412.6	53.652	12.004	456.84	44.945	92.267	495.6	29.464	74.845	844.16	1018	-0.384	805.01	1638.5	61.555	786.99	1287.9	-134.09	745.86	1497.5	134.7	695.8	982.6	459.98	706.86	845.93	468.56	646.36	1005.9	189.02	635	1272.7	133.11	748.38	678.03	-33.244	637.74	1002.7	110.17	814.01	1456.7	-32.112	386.37	169.61	31.208	813.39	1641.9	203.4	759.67	1273.9	392.49	744.29	1114.2	-96.208	989	1628.1	95.681	697.97	1130.4	429.17	566.12	311.86	-6.5698	987.75	928.31	-99.465	663.37	1408.7	264.11	992.33	1628.4	172.2	1136.6	35.683	196.67	675.92	1115.2	352.84	965.39	277.74	257.11	933.99	496.87	285.24	888.85	34.207	161.38	1032.5	26.023	251.78	939.52	68.332	215.31	717.26	491.28	114.19	994.69	380.63	205.36	911.77	609.1	296.38	917.56	1235.2	126.89	989.91	288.12	192.29	864.05	1023.9	281.62	983.33	195.88	181.66	1085.4	40.308	174.77	940.21	518.67	152.65	585.68	293.08	64.62	888.74	699.15	316.42	766.57	769.05	-44.837	322.63	182.11	80.825	427.13	166.21	109.96	975.17	98.659	138.89	858.2	789.19	329.15	768.31	841.51	424.76
393	1.965	769.91	805.82	479.82	782.14	1131.6	-165.4	852.85	993.17	-162.17	928.44	884.17	-137.53	745.47	586.6	-22.824	709.01	489.25	-12.473	665.02	350.74	58.529	522.54	232.11	65.485	956.47	721.26	283.9	1010.5	877.01	-151.1	826.66	670.71	-10.22	417.93	57.504	11.257	461.14	46.644	91.451	499.03	30.099	73.872	850.75	1018.9	0.45839	811.3	1639.4	62.343	792.84	1288.5	-133.2	751.97	1498.2	135.39	705.05	982.73	460.53	717.03	846.22	468.86	652.67	1006.6	189.7	641.19	1273.2	133.75	758.79	677.41	-32.858	643.97	1003.1	110.8	820.1	1457.4	-31.407	394.92	174.15	30.63	819.48	1642.5	204.19	767.07	1274.5	393.1	749.41	1115.2	-94.84	995.26	1628.7	96.695	706.13	1130.7	429.99	576.89	313.33	-7.0665	990.64	926.33	-99.307	669.79	1409.4	264.97	998.45	1628.9	173.23	1137	35.181	196.52	683.76	1115.4	353.69	967.54	277.49	256.99	937.89	496.84	285.34	888.93	34.292	161.31	1032.5	26.174	251.68	939.75	68.421	215.03	731.03	489.85	114.02	997.71	380.19	205.33	916.35	609.27	296.7	923.8	1236	127.43	992.14	287.73	192.13	870.37	1025	282.29	984.66	195.54	181.44	1085.6	40.213	174.57	944.5	518.89	152.7	596.4	293.95	63.961	893.87	699.38	316.86	775.66	768.7	-44.133	331.7	188.6	80.504	435.85	169.5	109.25	975.48	98.433	138.55	863.89	789.53	329.64	778.14	842.17	424.51
394	1.97	780.52	806.38	479.52	787.14	1132.2	-164.17	856.25	993.07	-161.42	930.54	883.1	-137.25	757.22	585.81	-22.661	721.79	488.29	-12.603	676.94	350.51	58.028	532.48	234.28	64.932	961.64	721.11	284.53	1012.4	874.83	-151.1	837.22	671.13	-9.7573	423.95	61.509	10.387	466.22	48.572	90.477	503.29	30.906	72.718	857.27	1019.6	1.2268	817.55	1640.2	63.104	798.66	1289.1	-132.32	758.05	1498.9	136.07	714.37	982.87	461.07	727.32	846.52	469.13	658.93	1007.3	190.4	647.35	1273.8	134.4	769.21	676.85	-32.479	650.16	1003.5	111.46	826.15	1458.2	-30.728	403.87	178.64	30.07	825.54	1643.1	204.95	774.47	1275.1	393.71	754.51	1116.2	-93.499	1001.5	1629.4	97.694	714.32	1131	430.81	587.96	314.8	-7.4849	993.44	924.33	-99.142	676.19	1410	265.82	1004.5	1629.5	174.25	1137.3	34.778	196.39	691.59	1115.7	354.56	969.55	277.23	256.88	941.58	496.78	285.42	889	34.361	161.25	1032.6	26.32	251.57	939.94	68.502	214.76	744.93	488.57	113.93	1000.6	379.74	205.34	920.72	609.39	297.02	929.99	1236.8	127.94	994.26	287.35	192.01	876.63	1026.1	282.93	985.92	195.21	181.25	1085.7	40.157	174.39	948.65	519.09	152.72	607.34	294.89	63.414	898.83	699.57	317.28	784.74	768.41	-43.456	341.13	194.83	80.165	444.89	172.79	108.58	975.75	98.216	138.23	869.45	789.85	330.11	788.1	842.89	424.23
395	1.975	791.28	807	479.19	792.12	1132.9	-162.95	859.61	992.96	-160.68	932.56	882.05	-136.98	768.95	585.12	-22.463	734.61	487.41	-12.667	689	350.42	57.686	542.71	236.48	64.478	966.67	720.93	285.16	1014.3	872.63	-151.09	847.75	671.64	-9.3431	430.67	65.619	9.4026	472.12	50.705	89.347	508.45	31.898	71.378	863.7	1020.4	1.9184	823.78	1641	63.839	804.46	1289.8	-131.46	764.09	1499.6	136.72	723.76	983.02	461.61	737.73	846.84	469.37	665.14	1008	191.1	653.47	1274.5	135.06	779.59	676.38	-32.107	656.3	1003.8	112.14	832.15	1458.9	-30.078	413.21	183.04	29.533	831.55	1643.7	205.69	781.85	1275.7	394.32	759.58	1117.2	-92.19	1007.7	1630	98.674	722.52	1131.2	431.65	599.32	316.29	-7.8225	996.15	922.31	-98.972	682.55	1410.6	266.66	1010.6	1630	175.24	1137.6	34.46	196.3	699.42	1116	355.46	971.42	276.96	256.81	945.07	496.68	285.48	889.06	34.416	161.18	1032.7	26.454	251.47	940.11	68.578	214.52	758.92	487.47	113.92	1003.3	379.28	205.38	924.92	609.49	297.33	936.12	1237.5	128.42	996.29	286.97	191.92	882.83	1027.2	283.53	987.12	194.88	181.1	1085.9	40.129	174.24	952.64	519.28	152.74	618.5	295.91	62.988	903.65	699.74	317.68	793.79	768.17	-42.807	350.89	200.75	79.824	454.25	176.05	107.97	975.99	98.01	137.95	874.88	790.15	330.57	798.17	843.67	423.92
